<svg width="32" height="32" viewBox="0 0 32 32" fill="none" xmlns="http://www.w3.org/2000/svg">
<g id="Frame">
<path id="Vector" d="M16 29.3332C8.63616 29.3332 2.66663 23.3636 2.66663 15.9998C2.66663 8.63604 8.63616 2.6665 16 2.6665C23.3637 2.6665 29.3333 8.63604 29.3333 15.9998C29.3333 23.3636 23.3637 29.3332 16 29.3332ZM16 26.6665C21.891 26.6665 26.6666 21.8909 26.6666 15.9998C26.6666 10.1088 21.891 5.33317 16 5.33317C10.1089 5.33317 5.33329 10.1088 5.33329 15.9998C5.33329 21.8909 10.1089 26.6665 16 26.6665ZM14.6666 19.9998H17.3333V22.6665H14.6666V19.9998ZM17.3333 17.8066V18.6665H14.6666V16.6665C14.6666 15.9301 15.2636 15.3332 16 15.3332C17.1045 15.3332 18 14.4377 18 13.3332C18 12.2286 17.1045 11.3332 16 11.3332C15.0297 11.3332 14.2208 12.0241 14.0384 12.9409L11.423 12.4178C11.8485 10.2788 13.736 8.6665 16 8.6665C18.5773 8.6665 20.6666 10.7558 20.6666 13.3332C20.6666 15.4472 19.2609 17.2329 17.3333 17.8066Z" fill="white"/>
</g>
</svg>
