<svg width="32" height="32" viewBox="0 0 32 32" fill="none" xmlns="http://www.w3.org/2000/svg">
<g id="Frame">
<path id="Vector" d="M5.33329 25.3333V6.66667H12.781L15.4477 9.33333H26.6666V25.3333H5.33329ZM28 6.66667H16.5522L13.8856 4H3.99996C3.26359 4 2.66663 4.59696 2.66663 5.33333V26.6667C2.66663 27.4031 3.26359 28 3.99996 28H28C28.7364 28 29.3333 27.4031 29.3333 26.6667V8C29.3333 7.26363 28.7364 6.66667 28 6.66667ZM20.001 16.8893L13.4958 12.5525C13.4082 12.4941 13.3053 12.4629 13.2 12.4629C12.9054 12.4629 12.6666 12.7017 12.6666 12.9962V21.6699C12.6666 21.7752 12.6978 21.8781 12.7562 21.9657C12.9196 22.2108 13.2508 22.2771 13.4958 22.1136L20.001 17.7768C20.0596 17.7377 20.1098 17.6875 20.1489 17.6289C20.3124 17.3839 20.2461 17.0527 20.001 16.8893Z" fill="white"/>
</g>
</svg>
