<svg width="32" height="32" viewBox="0 0 32 32" fill="none" xmlns="http://www.w3.org/2000/svg">
<g id="Frame">
<path id="Vector" d="M2.66663 15.9997C2.66663 14.8471 2.81289 13.7285 3.08789 12.6617C4.54159 12.7371 5.9846 12.0135 6.76236 10.6664C7.53952 9.32033 7.44537 7.71028 6.65491 6.48934C8.24468 4.92705 10.2244 3.76029 12.4347 3.14844C13.0962 4.44513 14.4444 5.33309 16 5.33309C17.5556 5.33309 18.9037 4.44513 19.5653 3.14844C21.7756 3.76029 23.7553 4.92705 25.345 6.48934C24.5545 7.71028 24.4604 9.32033 25.2376 10.6664C26.0153 12.0135 27.4584 12.7371 28.9121 12.6617C29.187 13.7285 29.3333 14.8471 29.3333 15.9997C29.3333 17.1524 29.187 18.2709 28.9121 19.3377C27.4584 19.2624 26.0153 19.986 25.2376 21.3331C24.4604 22.6792 24.5545 24.2892 25.345 25.5101C23.7553 27.0724 21.7756 28.2392 19.5653 28.8511C18.9037 27.5544 17.5556 26.6664 16 26.6664C14.4444 26.6664 13.0962 27.5544 12.4347 28.8511C10.2244 28.2392 8.24468 27.0724 6.65491 25.5101C7.44537 24.2892 7.53952 22.6792 6.76236 21.3331C5.9846 19.986 4.54159 19.2624 3.08789 19.3377C2.81289 18.2709 2.66663 17.1524 2.66663 15.9997ZM9.07176 19.9997C9.91189 21.4549 10.1527 23.1279 9.8242 24.6981C10.3679 25.0851 10.9467 25.4203 11.5531 25.6988C12.749 24.6283 14.3189 23.9997 16 23.9997C17.681 23.9997 19.2509 24.6283 20.4468 25.6988C21.0532 25.4203 21.632 25.0851 22.1757 24.6981C21.8472 23.1279 22.088 21.4549 22.9282 19.9997C23.7682 18.5447 25.0966 17.4997 26.6206 16.9991C26.6512 16.6687 26.6666 16.3355 26.6666 15.9997C26.6666 15.6641 26.6512 15.3308 26.6206 15.0005C25.0966 14.4999 23.7682 13.4549 22.9282 11.9998C22.088 10.5446 21.8472 8.8717 22.1757 7.3014C21.632 6.9145 21.0532 6.57929 20.4468 6.30069C19.2509 7.37125 17.681 7.99976 16 7.99976C14.3189 7.99976 12.749 7.37125 11.5531 6.30069C10.9467 6.57929 10.3679 6.9145 9.8242 7.3014C10.1527 8.8717 9.91189 10.5446 9.07176 11.9998C8.23164 13.4549 6.90335 14.4999 5.37931 15.0005C5.34872 15.3308 5.33329 15.6641 5.33329 15.9997C5.33329 16.3355 5.34872 16.6687 5.37931 16.9991C6.90335 17.4997 8.23164 18.5447 9.07176 19.9997ZM16 19.9997C13.7908 19.9997 12 18.2089 12 15.9997C12 13.7907 13.7908 11.9998 16 11.9998C18.2092 11.9998 20 13.7907 20 15.9997C20 18.2089 18.2092 19.9997 16 19.9997ZM16 17.3331C16.7364 17.3331 17.3333 16.7361 17.3333 15.9997C17.3333 15.2633 16.7364 14.6664 16 14.6664C15.2636 14.6664 14.6666 15.2633 14.6666 15.9997C14.6666 16.7361 15.2636 17.3331 16 17.3331Z" fill="white"/>
</g>
</svg>
